<svg xmlns="http://www.w3.org/2000/svg" viewBox="0 0 183 114"><defs><style>.a{fill:#fff;}.b{fill:#7673c0;}.c{fill:#eb001b;}.d{fill:#00a1df;}</style></defs><rect width="183" height="114"/><path class="a" d="M66.86,104.47V98a3.8,3.8,0,0,0-4-4.06,4,4,0,0,0-3.6,1.82A3.76,3.76,0,0,0,55.86,94a3.38,3.38,0,0,0-3,1.52V94.24H50.64v10.23h2.25v-5.7A2.39,2.39,0,0,1,55.39,96c1.48,0,2.23,1,2.23,2.7v5.69h2.25V98.77A2.41,2.41,0,0,1,62.38,96c1.52,0,2.25,1,2.25,2.7v5.69ZM79.4,99.36V94.25H77.15v1.24A3.88,3.88,0,0,0,73.93,94a5.36,5.36,0,0,0,0,10.71,3.88,3.88,0,0,0,3.21-1.5v1.24h2.23Zm-8.28,0a3.1,3.1,0,1,1,3.11,3.28,3.06,3.06,0,0,1-3.13-3q0-.14,0-.29ZM127,94a5.76,5.76,0,0,1,2.14.41,5.36,5.36,0,0,1,1.78,1.15,5.18,5.18,0,0,1,1.16,1.7,5.68,5.68,0,0,1,0,4.28,5.17,5.17,0,0,1-1.16,1.7,5.35,5.35,0,0,1-1.75,1.14,6.06,6.06,0,0,1-4.39,0,5.29,5.29,0,0,1-1.74-1.14,5.23,5.23,0,0,1-1.15-1.7,5.69,5.69,0,0,1,0-4.28,5.23,5.23,0,0,1,1.15-1.7,5.29,5.29,0,0,1,1.74-1.14A5.76,5.76,0,0,1,127,94Zm0,2.14a3.32,3.32,0,0,0-1.27.24,3,3,0,0,0-1,.67,3.14,3.14,0,0,0-.67,1.07,3.72,3.72,0,0,0,0,2.66,3.13,3.13,0,0,0,.67,1.07,3,3,0,0,0,1,.67,3.48,3.48,0,0,0,2.54,0,3.06,3.06,0,0,0,1.07-.67,3.1,3.1,0,0,0,.67-1.07,3.72,3.72,0,0,0,0-2.66,3.11,3.11,0,0,0-.67-1.07,3.06,3.06,0,0,0-1.07-.67,3.32,3.32,0,0,0-1.29-.3ZM91.5,99.36c0-3.21-2-5.36-4.85-5.36a5.36,5.36,0,1,0,.15,10.71A6.21,6.21,0,0,0,91,103.28l-1.07-1.65a4.87,4.87,0,0,1-3,1.07,2.84,2.84,0,0,1-3.06-2.51h7.59A6.91,6.91,0,0,0,91.5,99.36Zm-7.61-.9A2.63,2.63,0,0,1,86.6,96a2.54,2.54,0,0,1,2.59,2.48H83.88Zm17-1.61A6.59,6.59,0,0,0,97.66,96c-1.22,0-1.95.45-1.95,1.2s.77.88,1.74,1l1.07.15c2.23.32,3.58,1.26,3.58,3.06s-1.71,3.34-4.66,3.34A7.38,7.38,0,0,1,93,103.41l1.07-1.74a5.45,5.45,0,0,0,3.41,1.07c1.52,0,2.33-.45,2.33-1.24,0-.58-.58-.9-1.8-1.07l-1.07-.15c-2.29-.32-3.53-1.35-3.53-3,0-2,1.67-3.28,4.28-3.28a7.65,7.65,0,0,1,4.17,1.07Zm10.71-.58h-3.63v4.64c0,1.07.36,1.71,1.48,1.71a4.11,4.11,0,0,0,2-.58L112,104a5.23,5.23,0,0,1-2.78.79c-2.63,0-3.56-1.41-3.56-3.79V96.3h-2.08v-2h2.08V91.15h2.25v3.11h3.63Zm7.7-2.29a4.75,4.75,0,0,1,1.59.28l-.69,2.14a3.62,3.62,0,0,0-1.39-.26c-1.46,0-2.14.94-2.14,2.63v5.73h-2.23V94.28h2.21v1.24a3,3,0,0,1,2.7-1.5Zm15.4,9a1,1,0,0,1,1,.61,1,1,0,0,1,0,.79,1,1,0,0,1-.56.54,1,1,0,0,1-.41.09,1.07,1.07,0,0,1-1-.62,1,1,0,0,1,0-.79,1,1,0,0,1,.91-.6Zm0,1.81a.76.76,0,0,0,.31-.06.8.8,0,0,0,.25-.17.79.79,0,0,0-.25-1.29.77.77,0,0,0-.31-.06.8.8,0,0,0-.31.06.78.78,0,0,0-.26.17.77.77,0,0,0,.57,1.31Zm.06-1.27a.43.43,0,0,1,.28.09.27.27,0,0,1,.1.22.26.26,0,0,1-.07.19.37.37,0,0,1-.22.1l.31.35h-.25l-.29-.35h-.1v.35h-.2v-.94Zm-.24.18v.26h.24a.23.23,0,0,0,.13,0,.11.11,0,0,0,0-.1.11.11,0,0,0,0-.1.23.23,0,0,0-.13,0Z"/><rect class="b" x="74.63" y="16.22" width="33.74" height="60.63"/><path class="c" d="M76.77,46.53A38.49,38.49,0,0,1,91.5,16.22a38.56,38.56,0,1,0,0,60.63A38.49,38.49,0,0,1,76.77,46.53Z"/><path class="d" d="M150.2,70.42V69.18h.5v-.26h-1.27v.26h.5v1.24Zm2.47,0v-1.5h-.39L151.84,70l-.45-1.07H151v1.5h.28V69.3l.42,1H152l.42-1v1.14Z"/><path class="d" d="M153.89,46.53A38.56,38.56,0,0,1,91.5,76.84a38.56,38.56,0,0,0,0-60.63,38.56,38.56,0,0,1,62.39,30.31Z"/></svg>