<svg xmlns="http://www.w3.org/2000/svg" viewBox="0 0 183 114"><defs><style>.a{fill:#fff;}.b{fill:#ff5f00;}.c{fill:#eb001b;}.d{fill:#f79e1b;}</style></defs><rect width="183" height="114"/><path class="a" d="M51.66,104.48V98A3.73,3.73,0,0,0,47.71,94a4,4,0,0,0-3.6,1.82A3.77,3.77,0,0,0,40.72,94a3.51,3.51,0,0,0-3.09,1.5V94.23H35.58v10.25h2.08V98.61a2.46,2.46,0,0,1,2.59-2.72c1.48,0,2.32,1,2.32,2.7v5.9h2.08V98.61a2.48,2.48,0,0,1,2.6-2.72c1.52,0,2.34,1,2.34,2.7v5.9ZM85.07,94.23H81.34V91.12H79.26v3.11H77.1V96.1h2.17v4.85c0,2.38.84,3.8,3.47,3.8a5.24,5.24,0,0,0,2.79-.79l-.64-1.82a4.12,4.12,0,0,1-2,.58c-1.12,0-1.57-.69-1.57-1.72V96.1h3.73Zm19-.26a3.17,3.17,0,0,0-2.79,1.5V94.23h-2v10.25h2.06V98.71c0-1.69.81-2.79,2.27-2.79a3.63,3.63,0,0,1,1.39.26l.69-1.93A4.77,4.77,0,0,0,104.1,94ZM75.34,95A7.67,7.67,0,0,0,71.15,94C68.56,94,67,95.2,67,97.23c0,1.67,1.16,2.68,3.45,3l1.05.15c1.22.17,1.89.6,1.89,1.18,0,.79-.9,1.31-2.42,1.31a5.32,5.32,0,0,1-3.41-1.07l-1.05,1.61a7.65,7.65,0,0,0,4.44,1.33c3,0,4.59-1.37,4.59-3.32,0-1.8-1.24-2.72-3.5-3L71,98.22c-1-.13-1.82-.43-1.82-1.12s.81-1.27,2-1.27a6.61,6.61,0,0,1,3.2.88Zm31.1,4.31a5.11,5.11,0,0,0,5.38,5.38,5.37,5.37,0,0,0,3.69-1.22l-1.07-1.61a4.51,4.51,0,0,1-2.68.92,3.49,3.49,0,0,1,0-6.95,4.51,4.51,0,0,1,2.68.92l1.07-1.61A5.37,5.37,0,0,0,111.82,94a5.11,5.11,0,0,0-5.38,5.38ZM92,94C89,94,87,96.14,87,99.33a5,5,0,0,0,5.21,5.4,6.23,6.23,0,0,0,4.2-1.44l-1.09-1.52a4.88,4.88,0,0,1-3,1.07,3,3,0,0,1-3.15-2.66H96.8c0-.28,0-.56,0-.86,0-3.2-2-5.36-4.83-5.36Zm0,1.91a2.61,2.61,0,0,1,2.7,2.59H89.15A2.74,2.74,0,0,1,92,95.88ZM64.23,99.36V94.23H62.17v1.24A4.06,4.06,0,0,0,58.84,94a5.39,5.39,0,0,0,0,10.77,4.06,4.06,0,0,0,3.32-1.5v1.24h2.06Zm-8.3,0a3.21,3.21,0,0,1,3.2-3.47,3.49,3.49,0,0,1,0,6.95,3.21,3.21,0,0,1-3.2-3.47ZM135.06,94a3.17,3.17,0,0,0-2.79,1.5V94.23h-2v10.25h2.06V98.71c0-1.69.81-2.79,2.27-2.79a3.63,3.63,0,0,1,1.39.26l.69-1.93a4.77,4.77,0,0,0-1.59-.28Zm-7.89,5.38V94.23h-2.06v1.24a4.06,4.06,0,0,0-3.32-1.5,5.39,5.39,0,0,0,0,10.77,4.06,4.06,0,0,0,3.32-1.5v1.24h2.06Zm-8.3,0a3.21,3.21,0,0,1,3.2-3.47,3.49,3.49,0,0,1,0,6.95,3.21,3.21,0,0,1-3.2-3.47Zm29,0V90.11h-2.06v5.36a4.06,4.06,0,0,0-3.32-1.5,5.39,5.39,0,0,0,0,10.77,4.06,4.06,0,0,0,3.32-1.5v1.24h2.06Zm-8.3,0a3.21,3.21,0,0,1,3.2-3.47,3.49,3.49,0,0,1,0,6.95A3.21,3.21,0,0,1,139.57,99.36Z"/><rect class="b" x="72.94" y="16.22" width="37.12" height="60.63"/><path class="c" d="M76.77,46.53A38.49,38.49,0,0,1,91.5,16.22a38.56,38.56,0,1,0,0,60.63A38.49,38.49,0,0,1,76.77,46.53Z"/><path class="d" d="M153.88,46.53A38.56,38.56,0,0,1,91.5,76.85a38.56,38.56,0,0,0,0-60.63,38.56,38.56,0,0,1,62.38,30.31Z"/></svg>