<svg xmlns="http://www.w3.org/2000/svg" viewBox="0 0 183 114"><defs><style>.a{fill:#f7b600;}.b{fill:#1a1f71;}</style></defs><rect class="a" y="97.59" width="183" height="16.41"/><rect class="b" width="183" height="16.41"/><path class="b" d="M73.25,34.49,54.35,79.6H42l-9.3-36c-.56-2.21-1.06-3-2.77-4A48.79,48.79,0,0,0,18.43,35.8l.28-1.31H38.56a5.44,5.44,0,0,1,5.38,4.6l4.91,26.11L61,34.49Zm48.32,30.38C121.62,53,105.12,52.31,105.23,47c0-1.62,1.58-3.34,4.95-3.78a22,22,0,0,1,11.51,2l2-9.57a31.44,31.44,0,0,0-10.91-2c-11.53,0-19.65,6.13-19.71,14.91-.07,6.49,5.8,10.12,10.21,12.28s6.08,3.63,6.05,5.6c0,3-3.63,4.37-7,4.42A24.37,24.37,0,0,1,90.4,68l-2.12,9.89a35.44,35.44,0,0,0,13,2.39c12.26,0,20.28-6.06,20.32-15.44M152,79.6h10.79l-9.43-45.11h-10a5.31,5.31,0,0,0-5,3.31L121,79.6h12.25l2.43-6.74h15Zm-13-16,6.14-16.94,3.53,16.94ZM89.92,34.49,80.28,79.6H68.61l9.65-45.11Z"/></svg>