<svg xmlns="http://www.w3.org/2000/svg" viewBox="0 0 183 114"><defs><style>.a{fill:#f7b600;}.b{fill:#1a1f71;}</style></defs><rect class="a" x="0.2" y="97.36" width="183" height="16.41"/><rect class="b" x="0.2" y="-0.23" width="183" height="16.41"/><path class="b" d="M72.21,31l-18,42.88H42.52L33.67,39.66c-.54-2.1-1-2.88-2.63-3.77a46.44,46.44,0,0,0-10.94-3.65L20.36,31H39.23a5.17,5.17,0,0,1,5.11,4.37L49,60.19,60.56,31Zm45.94,28.88c0-11.32-15.64-11.94-15.54-17,0-1.54,1.5-3.17,4.71-3.59a20.94,20.94,0,0,1,10.94,1.92l1.94-9.1a29.9,29.9,0,0,0-10.37-1.89c-11,0-18.68,5.83-18.74,14.17C91,50.57,96.59,54,100.79,56.06s5.77,3.45,5.75,5.33c0,2.88-3.45,4.15-6.63,4.2a23.18,23.18,0,0,1-11.39-2.71l-2,9.4a33.65,33.65,0,0,0,12.33,2.28c11.66,0,19.28-5.76,19.31-14.67m29,14h10.26L148.4,31h-9.46a5,5,0,0,0-4.72,3.14L117.57,73.88h11.65l2.31-6.41h14.23ZM134.72,58.69l5.84-16.1,3.36,16.1ZM88.06,31,78.89,73.88H67.8L77,31Z"/><path class="b" d="M102.26,85.69H97.75v4.2h5v1.26H96.23V79.51h6.3v1.26H97.75v3.68h4.51Z"/><path class="b" d="M105.12,78.88h1.52V91.15h-1.52Z"/><path class="b" d="M110.47,87.24a2.67,2.67,0,0,0,2.87,2.9,5.44,5.44,0,0,0,2.31-.43l.28,1.09a6.81,6.81,0,0,1-2.8.54A3.89,3.89,0,0,1,109,87.1c0-2.52,1.48-4.49,3.92-4.49,2.74,0,3.45,2.38,3.45,3.92a3.66,3.66,0,0,1-.05.71Zm4.45-1.09a2.16,2.16,0,0,0-2.11-2.45,2.49,2.49,0,0,0-2.33,2.45Z"/><path class="b" d="M124.66,90.85a5.87,5.87,0,0,1-2.4.48,4,4,0,0,1-4.16-4.27,4.26,4.26,0,0,1,4.49-4.46,4.77,4.77,0,0,1,2.11.45l-.34,1.16a3.72,3.72,0,0,0-1.76-.4,2.9,2.9,0,0,0-3,3.16,2.87,2.87,0,0,0,2.9,3.13,4.35,4.35,0,0,0,1.86-.4Z"/><path class="b" d="M128.92,80.78v2h2.17v1.16h-2.17v4.51c0,1,.29,1.62,1.14,1.62a2.83,2.83,0,0,0,.88-.1l.07,1.16a4.14,4.14,0,0,1-1.35.21A2.17,2.17,0,0,1,128,90.7a3.27,3.27,0,0,1-.59-2.19V83.94h-1.3V82.79h1.3V81.23Z"/><path class="b" d="M133.22,85.39c0-1,0-1.83-.07-2.61h1.33l.07,1.66h.05a2.53,2.53,0,0,1,2.33-1.83,3.12,3.12,0,0,1,.42,0v1.43a2.33,2.33,0,0,0-.52,0,2.12,2.12,0,0,0-2,1.93,4.59,4.59,0,0,0-.05.71v4.46h-1.52Z"/><path class="b" d="M146.68,86.9a4.09,4.09,0,0,1-4.16,4.44,4,4,0,0,1-4-4.3,4.08,4.08,0,0,1,4.14-4.42A4,4,0,0,1,146.68,86.9Zm-6.61.09c0,1.83,1,3.21,2.52,3.21s2.54-1.36,2.54-3.25c0-1.42-.71-3.2-2.5-3.2S140.07,85.41,140.07,87Z"/><path class="b" d="M149,85c0-.88,0-1.57-.07-2.26h1.35l.09,1.38h0a3.1,3.1,0,0,1,2.76-1.55c1.16,0,3,.69,3,3.56v5H154.6V86.33c0-1.35-.5-2.47-1.93-2.47a2.23,2.23,0,0,0-2.14,2.26v5H149Z"/></svg>